Coordinates
version=1
nRows=19
nColumns=24
inDegrees=yes

Units are S.I. units (second, meters, Newtons, ...)
Angles are in degrees.

endheader
time	pelvis_tilt	pelvis_list	pelvis_rotation	pelvis_tx	pelvis_ty	pelvis_tz	hip_flexion_r	hip_adduction_r	hip_rotation_r	knee_angle_r	ankle_angle_r	subtalar_angle_r	mtp_angle_r	hip_flexion_l	hip_adduction_l	hip_rotation_l	knee_angle_l	ankle_angle_l	subtalar_angle_l	mtp_angle_l	lumbar_extension	lumbar_bending	lumbar_rotation
      3.91000000	     -4.50849497	      0.82486104	     -5.07649970	      0.75180540	      0.70294430	     -0.28768324	     25.34589684	      3.82799295	      4.73940122	    -68.48950025	      5.58369673	     -3.97251223	      0.00000000	      2.21767323	      6.93922263	     24.64219959	      0.33947995	     -3.01218379	    -34.12059922	      0.00000000	    -12.11041123	     -2.65630220	     -2.30132738
      3.92000000	     -4.61158089	      0.10370852	     -4.35113042	      0.76356143	      0.70363716	     -0.28805588	     27.24010804	      4.72740044	      4.29181032	    -67.41707091	      5.85798730	     -6.30743293	      0.00000000	      0.79479588	      6.08546507	     25.37680339	      1.16703733	     -2.79236288	    -34.35875210	      0.00000000	    -12.26462435	     -1.70977527	     -3.13248034
      3.93000000	     -4.73557103	     -0.53468210	     -3.69485554	      0.77520756	      0.70393404	     -0.28835928	     29.06297290	      5.52371587	      3.98982150	    -65.97302213	      6.06145045	     -8.34718164	      0.00000000	     -0.47730719	      5.34989856	     25.85646986	      1.82044908	     -2.38619543	    -34.50492177	      0.00000000	    -12.40510022	     -0.87182472	     -3.84326445
      3.94000000	     -4.74678548	     -0.99968580	     -2.92903760	      0.78666213	      0.70402412	     -0.28873015	     30.65434121	      6.03335598	      3.68510821	    -64.14979924	      6.14577481	    -10.24270551	      0.00000000	     -1.73755778	      4.81532487	     26.46592150	      2.29687999	     -1.99581105	    -34.65431344	      0.00000000	    -12.73908446	     -0.25960089	     -4.74193972
      3.95000000	     -4.66079371	     -1.35088692	     -2.14173241	      0.79803670	      0.70393156	     -0.28902979	     31.97196622	      6.36783913	      3.46931109	    -61.90455262	      6.28204654	    -11.71292033	      0.00000000	     -3.00963792	      4.40362332	     27.10017226	      2.63359420	     -1.60157543	    -34.87799199	      0.00000000	    -13.21107907	      0.15615655	     -5.59851003
      3.96000000	     -4.48265330	     -1.58393653	     -1.36965502	      0.80937881	      0.70365380	     -0.28932534	     33.00705287	      6.53126175	      3.35467342	    -59.24569900	      6.45006958	    -12.79025991	      0.00000000	     -4.32798024	      4.11793859	     27.72377689	      2.88745965	     -1.22538908	    -35.16251288	      0.00000000	    -13.80988089	      0.44433843	     -6.42404037
      3.97000000	     -4.32325070	     -1.69324331	     -0.65795128	      0.82069326	      0.70314059	     -0.28957113	     33.84796228	      6.56481996	      3.43576615	    -56.15364136	      6.67664305	    -13.35564788	      0.00000000	     -5.57830900	      3.96790498	     28.22053696	      3.05262173	     -0.90298369	    -35.39262970	      0.00000000	    -14.40857433	      0.60712271	     -7.25135834
      3.98000000	     -3.85133091	     -1.73210170	      0.04054964	      0.83208590	      0.70275019	     -0.28971805	     34.09077388	      6.47165879	      3.50430560	    -52.57370145	      6.99194757	    -13.63397842	      0.00000000	     -7.19958240	      3.83719121	     28.80552634	      3.26282776	     -0.65488656	    -35.75346551	      0.00000000	    -15.40054447	      0.62457366	     -7.87214041
      3.99000000	     -3.75753876	     -1.68041108	      0.73447069	      0.84360878	      0.70173006	     -0.29001459	     34.48644106	      6.21636739	      3.63580691	    -48.56515265	      7.39336524	    -13.32758329	      0.00000000	     -8.35751915	      3.83802615	     29.17721643	      3.33886808	     -0.27648813	    -35.88667890	      0.00000000	    -15.86784919	      0.60784450	     -8.61046931
      4.00000000	     -3.21120805	     -1.57125802	      1.40518133	      0.85526796	      0.70109514	     -0.29020009	     34.07381337	      5.88990639	      3.75761490	    -44.03171336	      7.77829016	    -12.92162864	      0.00000000	    -10.06371173	      3.80924842	     29.65159593	      3.48529511	      0.04046147	    -35.92120493	      0.00000000	    -16.91435069	      0.48518165	     -9.21303550
      4.01000000	     -2.91802799	     -1.40194627	      2.11818261	      0.86719993	      0.69995760	     -0.29061762	     33.64078569	      5.39873081	      3.80494258	    -39.10459605	      8.34968109	    -11.94546447	      0.00000000	    -11.47737044	      3.84441719	     30.10215126	      3.54224818	      0.46787555	    -35.83590412	      0.00000000	    -17.55632714	      0.36402676	     -9.86633253
      4.02000000	     -2.64774714	     -1.20114392	      2.80119634	      0.87939134	      0.69864982	     -0.29108714	     32.93634086	      4.85743742	      3.87606055	    -33.82415412	      8.88776762	    -10.59093339	      0.00000000	    -12.86712654	      3.87170026	     30.65694984	      3.53671570	      0.92668642	    -35.60627868	      0.00000000	    -18.13765655	      0.23970450	    -10.47615545
      4.03000000	     -1.98265267	     -0.99382799	      3.37323702	      0.89200338	      0.69762658	     -0.29138739	     31.48359036	      4.41568324	      4.09377727	    -28.20103506	      9.25921218	     -9.42136236	      0.00000000	    -14.74357130	      3.84730754	     31.02289492	      3.55799601	      1.48922277	    -35.10599777	      0.00000000	    -19.14407481	      0.10412481	    -10.94772769
      4.04000000	     -1.66287556	     -0.63664453	      4.08189086	      0.90484509	      0.69604823	     -0.29203750	     30.26335523	      3.69037550	      4.11557119	    -22.65364405	      9.66941297	     -7.81492289	      0.00000000	    -16.14804214	      3.97718049	     31.72138332	      3.31941357	      2.05874443	    -34.56687988	      0.00000000	    -19.66351337	     -0.12939647	    -11.62123767
      4.05000000	     -1.23178401	     -0.24859252	      4.69704548	      0.91814388	      0.69443281	     -0.29260194	     28.77935283	      3.01799112	      4.24253952	    -17.25126062	      9.94694358	     -6.35781748	      0.00000000	    -17.69049095	      4.10466898	     32.40759192	      3.01073049	      2.73337780	    -33.80889275	      0.00000000	    -20.22495649	     -0.39368533	    -12.14648883
      4.06000000	     -0.84261692	      0.19349009	      5.24307370	      0.93182408	      0.69267231	     -0.29315381	     27.29987473	      2.34411876	      4.38414883	    -12.27274222	     10.12037948	     -5.06905305	      0.00000000	    -19.15391676	      4.30018587	     33.06264593	      2.54165739	      3.43952473	    -32.86942284	      0.00000000	    -20.66512318	     -0.71707096	    -12.61340988
      4.07000000	     -0.47798927	      0.63927234	      5.68872666	      0.94588696	      0.69086083	     -0.29366810	     25.88430424	      1.74104929	      4.45159254	     -7.95753990	     10.27308583	     -3.93215146	      0.00000000	    -20.55409985	      4.53069744	     33.58655124	      1.91788599	      4.16662385	    -31.68832435	      0.00000000	    -20.99305633	     -1.03682471	    -12.97733986
      4.08000000	     -0.12062542	      1.01587369	      6.00365437	      0.96030849	      0.68911395	     -0.29407103	     24.57994882	      1.31879581	      4.43672241	     -4.47802661	     10.44465894	     -3.03373439	      0.00000000	    -21.88034020	      4.74840476	     33.83948281	      1.11091048	      4.94636411	    -30.14960768	      0.00000000	    -21.23510085	     -1.29114307	    -13.19284496
      4.09000000	      0.23477335	      1.27185494	      6.18859158	      0.97506244	      0.68752314	     -0.29437012	     23.41381589	      1.13604335	      4.44818587	     -1.92061031	     10.59457268	     -2.55061084	      0.00000000	    -23.10165978	      4.92979547	     33.65235774	      0.08233869	      5.81269661	    -28.11659360	      0.00000000	    -21.39669576	     -1.41449109	    -13.24095132
